<?xml version="1.0" encoding="utf-8"?>
<!-- Generator: Adobe Illustrator 19.2.0, SVG Export Plug-In . SVG Version: 6.00 Build 0)  -->
<svg version="1.1" id="Layer_1" xmlns="http://www.w3.org/2000/svg" xmlns:xlink="http://www.w3.org/1999/xlink" x="0px" y="0px"
	 viewBox="0 0 728 665" style="enable-background:new 0 0 728 665;" xml:space="preserve">
<style type="text/css">
	.st0{fill:#0B4E70;}
	.st1{fill:#212934;}
	.st2{fill:#75C372;}
	.st3{fill:#2391CD;}
</style>
<g transform="translate(0.000000,665.000000) scale(0.100000,-0.100000)">
	<path class="st0" d="M2855,6625c-121-19-243-58-340-108c-115-59-234-180-297-302c-196-381-309-1095-375-2365
		c-15-282-18-516-17-1470c1-624,5-1154,10-1177l9-43l64,148c440,1008,999,2159,1473,3036c434,803,827,1437,1171,1889
		c49,65,88,120,85,122c-2,2-80,27-173,55c-294,89-594,158-871,200C3411,6639,2992,6647,2855,6625z"/>
	<path class="st1" d="M5705,6619c-170-26-305-104-481-275c-380-372-875-1132-1513-2324c-163-304-670-1315-846-1685
		c-184-388-376-807-372-811c3-4,1242,766,1557,967c91,59,755,483,1475,944c721,461,1409,901,1530,979l220,142l3,565l2,565l-129,135
		c-339,354-689,616-975,729C6017,6613,5834,6640,5705,6619z"/>
	<path class="st2" d="M1233,4441C552,3931,131,3443,28,3045c-20-79-23-113-22-280c0-212,19-327,90-561c147-486,502-1115,995-1764
		c127-167,336-423,349-428c4-2,6,23,4,55s-11,209-19,393s-20,461-27,615c-17,389-18,2340,0,2685c15,311,40,706,48,778
		c4,33,3,52-4,52C1436,4590,1342,4523,1233,4441z"/>
	<path class="st3" d="M5405,2835C3336,1511,3396,1550,3403,1544c6-6,179-40,527-103c991-180,1858-307,2635-385c301-31,703-61,710-54
		c3,2,4,685,3,1517l-3,1511L5405,2835z"/>
</g>
</svg>
